<svg width="24" height="24" xmlns="http://www.w3.org/2000/svg">

 <g>
  <title>Layer 1</title>
  <g id="svg_1" data-name="Layer 2">
   <g id="svg_2" data-name="pin">
    <rect fill="#ff0000" id="svg_3" opacity="0" height="24" width="24"/>
    <path fill="#ff0000" id="svg_4" d="m12,2a8,8 0 0 0 -8,7.92c0,5.48 7.05,11.58 7.35,11.84a1,1 0 0 0 1.3,0c0.35,-0.26 7.35,-6.36 7.35,-11.84a8,8 0 0 0 -8,-7.92zm0,17.65c-1.67,-1.59 -6,-6 -6,-9.73a6,6 0 0 1 12,0c0,3.7 -4.33,8.14 -6,9.73z"/>
    <path fill="#ff0000" id="svg_5" d="m12,6a3.5,3.5 0 1 0 3.5,3.5a3.5,3.5 0 0 0 -3.5,-3.5zm0,5a1.5,1.5 0 1 1 1.5,-1.5a1.5,1.5 0 0 1 -1.5,1.5z"/>
   </g>
  </g>
 </g>
</svg>