<svg width="48" height="48" xmlns="http://www.w3.org/2000/svg">

 <g>
  <title>Layer 1</title>
  <g stroke="null" id="svg_1" data-name="Layer 2">
   <g stroke="null" id="svg_2" data-name="radio">
    <rect fill="#ffff00" stroke="null" x="0" y="0.18181" id="svg_3" opacity="0" height="47.9996" width="47.81778"/>
    <path fill="#ffff00" stroke="null" id="svg_4" d="m23.90889,16.18168a5.97722,5.99995 0 0 0 -1.99241,11.6599a1.99241,1.99998 0 0 0 0,0.34l0,11.9999a1.99241,1.99998 0 0 0 3.98482,0l0,-11.9999a1.99241,1.99998 0 0 0 0,-0.34a5.97722,5.99995 0 0 0 -1.99241,-11.6599zm0,7.99993a1.99241,1.99998 0 1 1 1.99241,-1.99998a1.99241,1.99998 0 0 1 -1.99241,1.99998z"/>
    <path fill="#ffff00" stroke="null" id="svg_5" d="m6.97343,22.18163a13.68784,13.73989 0 0 1 5.25996,-10.45991a1.99241,1.99998 0 1 0 -2.55028,-3.07997a17.61288,17.67985 0 0 0 -6.69449,13.53989a17.61288,17.67985 0 0 0 6.69449,13.53989a1.99241,1.99998 0 1 0 2.55028,-3.07997a13.68784,13.73989 0 0 1 -5.25996,-10.45991z"/>
    <path fill="#ffff00" stroke="null" id="svg_6" d="m33.15366,12.66171a1.99241,1.99998 0 0 0 -2.55028,3.03997a8.5275,8.55993 0 0 1 3.26755,6.47995a8.5275,8.55993 0 0 1 -3.26755,6.47995a1.99241,1.99998 0 0 0 1.27514,3.51997a1.99241,1.99998 0 0 0 1.27514,-0.48a12.35293,12.3999 0 0 0 4.70208,-9.51992a12.35293,12.3999 0 0 0 -4.70208,-9.51992z"/>
    <path fill="#ffff00" stroke="null" id="svg_7" d="m17.45349,12.90171a1.99241,1.99998 0 0 0 -2.78937,-0.24a12.35293,12.3999 0 0 0 -4.70208,9.51992a12.35293,12.3999 0 0 0 4.70208,9.51992a1.99241,1.99998 0 0 0 2.78937,-0.24a1.99241,1.99998 0 0 0 -0.23909,-2.79998a8.5275,8.55993 0 0 1 -3.26755,-6.47995a8.5275,8.55993 0 0 1 3.26755,-6.47995a1.99241,1.99998 0 0 0 0.23909,-2.79998z"/>
    <path fill="#ffff00" stroke="null" id="svg_8" d="m38.13468,8.64174a1.99241,1.99998 0 1 0 -2.55028,3.07997a13.68784,13.73989 0 0 1 5.25996,10.45991a13.68784,13.73989 0 0 1 -5.25996,10.45991a1.99241,1.99998 0 0 0 2.55028,3.07997a17.61288,17.67985 0 0 0 6.69449,-13.53989a17.61288,17.67985 0 0 0 -6.69449,-13.53989z"/>
   </g>
  </g>
 </g>
</svg>